<svg width="34" height="16" viewBox="0 0 34 16" fill="none" xmlns="http://www.w3.org/2000/svg">
<path d="M25.5999 2.64805L27.8879 3.61068L19.0159 12.9947L17.3625 12.2987L17.8586 0.00534058H20.1465L19.5279 9.45873L25.5999 2.64805Z" fill="#85C4FF"/>
<path d="M13.3653 0H15.6613L16.024 12.504L14.3653 13.184L5.59198 3.70664L7.88798 2.76797L13.888 9.64271L13.3653 0Z" fill="#85C4FF"/>
<path d="M3.25334 7.49596L4.216 5.20807L13.6 14.0801L12.904 15.7333L0 15.6827L0.962663 13.3974L10.064 13.568L3.25334 7.49596Z" fill="#85C4FF"/>
<path d="M23.2133 13.5626L32.32 13.4853L33.2587 15.784L20.3493 15.6987L19.672 14.0374L29.1467 5.26666L30.0853 7.56263L23.2133 13.5626Z" fill="#85C4FF"/>
</svg>
